# xmcd
#
# Track frame offsets:
#	150
#	8633
#	15912
#	22838
#	35338
#	41282
#	51080
#	60339
#	67746
#	84064
#	91118
#	97733
#	105203
#	122996
#
# Disc length: 1731 seconds
#
# Revision: 1
# Processed by: cddbd v1.5.1PL0 Copyright (c) Steve Scherf et al.
# Submitted via: EasyCDDAExtractor 7.0.5.4
#
DISCID=7f06c10e
DTITLE=The Warren Family - An Instrumental Reunion
DYEAR=2001
DGENRE=gospel
TTITLE0=POWER IN THE BLOOD
TTITLE1=AT CALVARY
TTITLE2=I SAW THE LIGHT
TTITLE3=I'VE GOT A MANSION
TTITLE4=DO LORD
TTITLE5=SOMEBODY LOVES ME
TTITLE6=HE ABIDES WITH ME
TTITLE7=SEND THE LIGHT
TTITLE8=OH WHAT A SAVIOUR
TTITLE9=THE UNCLOUDED DAY
TTITLE10=WHEN WE ALL GET TO HEAVEN
TTITLE11=WHEN THE SAINTS GO MARCHING IN
TTITLE12=THE OLD RUGGED CROSS
TTITLE13=YOU CAN'T BE A BEACON
EXTD=
EXTT0=
EXTT1=
EXTT2=
EXTT3=
EXTT4=
EXTT5=
EXTT6=
EXTT7=
EXTT8=
EXTT9=
EXTT10=
EXTT11=
EXTT12=
EXTT13=
PLAYORDER=
